<svg width="32" height="32" viewBox="0 0 32 32" fill="none" xmlns="http://www.w3.org/2000/svg">
<rect width="32" height="32" fill="white"/>
<path d="M26.4065 14.7149C25.8314 13.434 24.905 12.3424 23.7348 11.5666C22.7828 10.9403 21.6913 10.5579 20.5565 10.4533H20.5532C20.3174 10.4275 20.0804 10.4136 19.8432 10.4116H19.6765C19.2049 10.4104 18.7341 10.4517 18.2699 10.5349L18.2682 10.5299L16.8616 4H14.6382L15.0749 6.15498L6.68832 21.1182L5.02167 21.8015L5 21.9515H9.35996L9.38162 21.8015C8.68163 21.5898 7.98164 21.3776 7.28164 21.1648C8.20164 19.5032 9.12218 17.8421 10.0433 16.1815H12.4666C12.2127 17.1293 12.0877 18.107 12.0949 19.0882V19.3215C12.0728 20.8278 12.3794 22.3208 12.9933 23.6965C13.5688 24.977 14.495 26.0685 15.6649 26.8448C16.7 27.5239 17.8969 27.9161 19.1332 27.9814H19.1365C19.2549 27.9881 19.3732 27.9948 19.4932 27.9964C19.5615 27.9981 19.6299 27.9998 19.6999 27.9998C20.486 28.0059 21.2685 27.8912 22.0198 27.6598C22.6271 27.4703 23.2044 27.1959 23.7348 26.8448C24.9047 26.0685 25.8309 24.977 26.4065 23.6965C27.0203 22.3208 27.3269 20.8278 27.3048 19.3215V19.0765C27.3256 17.5747 27.019 16.0863 26.4065 14.7149ZM12.6216 15.6632L10.3316 15.6599C11.9599 12.7232 13.5877 9.78605 15.2149 6.84831L16.1149 11.2949C15.9616 11.3783 15.8116 11.4699 15.6649 11.5666C14.4947 12.3424 13.5683 13.434 12.9933 14.7149C12.8519 15.0239 12.7278 15.3405 12.6216 15.6632V15.6632ZM24.7798 22.6782C24.5999 23.5902 24.2854 24.4703 23.8465 25.2898C23.4672 26.0332 22.9008 26.6651 22.2032 27.1231C22.1021 27.1902 21.995 27.2477 21.8832 27.2948L18.3465 10.8933C18.1856 10.9502 18.0286 11.0175 17.8765 11.0949C17.6889 11.1916 17.5079 11.3007 17.3349 11.4216C16.976 11.6804 16.6527 11.9853 16.3732 12.3283C16.3599 12.3449 16.3449 12.3616 16.3332 12.3783L16.9982 15.6649L14.9149 15.6666C14.8766 15.8366 14.8432 16.0082 14.8132 16.1815H17.1032L19.4582 27.8248L19.3432 27.8198C18.5611 27.7949 17.8009 27.5563 17.1449 27.1298C16.4263 26.6629 15.852 26.0049 15.4866 25.2298C15.0924 24.4172 14.7905 23.563 14.5866 22.6832C14.3445 21.5436 14.2255 20.3814 14.2316 19.2165C14.2365 18.371 14.3039 17.5271 14.4332 16.6915C14.4582 16.5215 14.4849 16.3515 14.5166 16.1815C14.5316 16.0949 14.5466 16.0099 14.5649 15.9232C14.5832 15.8366 14.5982 15.7549 14.6166 15.6716C14.6165 15.6706 14.6166 15.6697 14.6168 15.6689C14.6171 15.668 14.6176 15.6672 14.6182 15.6666C14.618 15.6637 14.6186 15.6608 14.6199 15.6582C14.6399 15.5632 14.6616 15.4699 14.6849 15.3766C14.6899 15.3566 14.6949 15.3349 14.6999 15.3149C14.7149 15.2532 14.7316 15.1916 14.7482 15.1299C14.7649 15.0649 14.7832 15.0016 14.8032 14.9366C14.8299 14.8432 14.8599 14.7499 14.8899 14.6582C14.9199 14.5666 14.9516 14.4766 14.9849 14.3866C15.2549 13.6616 15.4999 12.9982 16.0832 12.3049C16.1266 12.2533 16.1682 12.2033 16.2132 12.1549C16.2332 12.1316 16.2532 12.1083 16.2749 12.0866C16.3666 11.9849 16.4632 11.8883 16.5616 11.7949C16.5932 11.7649 16.6266 11.7349 16.6599 11.7066C16.6821 11.6848 16.7054 11.6642 16.7299 11.6449C16.7699 11.6099 16.8099 11.5766 16.8516 11.5449C16.8616 11.5366 16.8716 11.5283 16.8832 11.5199C16.9332 11.4799 16.9832 11.4433 17.0349 11.4066C17.0716 11.3799 17.1082 11.3533 17.1465 11.3299C17.1506 11.3266 17.1551 11.3238 17.1599 11.3216C17.1882 11.3016 17.2165 11.2833 17.2449 11.2666C17.3499 11.1999 17.4615 11.1349 17.5799 11.0749L17.5849 11.0716C17.6499 11.0383 17.7165 11.0066 17.7849 10.9766C17.7949 10.9716 17.8032 10.9683 17.8132 10.9633C17.8532 10.9466 17.8965 10.9299 17.9382 10.9116C17.9865 10.8933 18.0349 10.8749 18.0832 10.8599C18.112 10.8482 18.1415 10.8382 18.1715 10.8299C18.2215 10.8116 18.2715 10.7966 18.3232 10.7833C18.3749 10.7699 18.4282 10.7533 18.4815 10.7416C18.5882 10.7149 18.6982 10.6916 18.8099 10.6733L18.9782 10.6483C19.0349 10.6399 19.0932 10.6349 19.1499 10.6283C19.2065 10.6216 19.2665 10.6183 19.3249 10.6149C19.3832 10.6116 19.4415 10.6083 19.5015 10.6066C19.5615 10.6049 19.6165 10.6033 19.6765 10.6033C19.8875 10.6024 20.0984 10.6135 20.3082 10.6366C20.8211 10.6825 21.3204 10.8274 21.7782 11.0633C22.3645 11.3637 22.8811 11.7839 23.2948 12.2966C23.7885 12.9299 24.1655 13.6461 24.4081 14.4116C24.661 15.1507 24.8419 15.9126 24.9481 16.6865C25.071 17.5282 25.1322 18.3776 25.1315 19.2282C25.1229 20.3867 25.0052 21.5418 24.7798 22.6782H24.7798Z" fill="#0D0D0D"/>
</svg>
