<svg width="48" height="52" viewBox="0 0 48 52" fill="none" xmlns="http://www.w3.org/2000/svg">
<g filter="url(#filter0_d)">
<path d="M42.3871 19.2145C41.3558 16.9176 39.6947 14.96 37.5962 13.5688C35.889 12.4456 33.9316 11.7599 31.8967 11.5723H31.8907C31.4678 11.526 31.0429 11.5011 30.6175 11.4976H30.3186C29.4729 11.4955 28.6287 11.5695 27.7962 11.7188L27.7932 11.7098L25.2707 0H21.2838L22.0668 3.86441L7.02757 30.6971L4.03885 31.9225L4 32.1915H11.8185L11.8573 31.9225C10.6021 31.5429 9.34681 31.1623 8.09155 30.7808C9.74133 27.801 11.3921 24.8223 13.0439 21.8445H17.3895C16.9342 23.5442 16.71 25.2974 16.723 27.0568V27.4753C16.6833 30.1764 17.233 32.8537 18.3339 35.3206C19.366 37.617 21.027 39.5744 23.1248 40.9663C24.9811 42.1842 27.1273 42.8875 29.3443 43.0046H29.3503C29.5625 43.0166 29.7747 43.0285 29.9899 43.0315C30.1124 43.0345 30.235 43.0375 30.3605 43.0375C31.7703 43.0485 33.1734 42.8429 34.5208 42.4278C35.6097 42.0881 36.6451 41.596 37.5962 40.9663C39.694 39.5744 41.355 37.617 42.3871 35.3206C43.4879 32.8537 44.0377 30.1764 43.998 27.4753V27.0359C44.0352 24.3427 43.4855 21.6737 42.3871 19.2145ZM17.6674 20.915L13.5609 20.9091C16.4809 15.6429 19.3999 10.3758 22.3178 5.10772L23.9318 13.0816C23.6568 13.231 23.3878 13.3954 23.1248 13.5688C21.0263 14.96 19.3651 16.9176 18.3339 19.2145C18.0804 19.7685 17.8579 20.3363 17.6674 20.915ZM39.4701 33.4945C39.1475 35.13 38.5835 36.7084 37.7964 38.1779C37.1162 39.511 36.1006 40.644 34.8495 41.4655C34.6683 41.5858 34.4762 41.6889 34.2757 41.7733L27.9336 12.3613C27.6451 12.4634 27.3636 12.5842 27.0908 12.723C26.7543 12.8962 26.4298 13.0919 26.1195 13.3088C25.476 13.7729 24.8962 14.3195 24.395 14.9346C24.3711 14.9645 24.3442 14.9944 24.3233 15.0243L25.5158 20.918L21.7799 20.921C21.7111 21.2259 21.6514 21.5337 21.5976 21.8445H25.7041L29.9271 42.7237L29.7209 42.7147C28.3185 42.6702 26.9551 42.2423 25.7788 41.4774C24.4902 40.6401 23.4604 39.4603 22.805 38.0703C22.0981 36.6131 21.5568 35.0813 21.1911 33.5035C20.7569 31.4601 20.5435 29.376 20.5545 27.287C20.5634 25.7708 20.6843 24.2574 20.9161 22.7591C20.961 22.4542 21.0088 22.1494 21.0656 21.8445C21.0925 21.6891 21.1194 21.5367 21.1522 21.3813C21.1851 21.2259 21.212 21.0794 21.2449 20.93C21.2447 20.9284 21.2449 20.9267 21.2454 20.9252C21.2459 20.9236 21.2468 20.9222 21.2479 20.921C21.2474 20.9158 21.2485 20.9107 21.2509 20.9061C21.2867 20.7357 21.3256 20.5683 21.3674 20.401C21.3764 20.3651 21.3854 20.3263 21.3943 20.2904C21.4212 20.1798 21.4511 20.0692 21.481 19.9586C21.5109 19.8421 21.5438 19.7285 21.5796 19.612C21.6275 19.4446 21.6812 19.2772 21.735 19.1128C21.7888 18.9485 21.8456 18.7871 21.9054 18.6257C22.3896 17.3256 22.8289 16.1361 23.875 14.8928C23.9527 14.8001 24.0274 14.7105 24.1081 14.6238C24.144 14.5819 24.1798 14.5401 24.2187 14.5013C24.3831 14.3189 24.5564 14.1456 24.7327 13.9782C24.7895 13.9244 24.8493 13.8706 24.9091 13.8198C24.9488 13.7807 24.9907 13.7437 25.0346 13.7092C25.1063 13.6465 25.178 13.5867 25.2528 13.5299C25.2707 13.515 25.2886 13.5 25.3096 13.4851C25.3992 13.4134 25.4889 13.3476 25.5815 13.2819C25.6473 13.234 25.713 13.1862 25.7818 13.1444C25.789 13.1383 25.7971 13.1333 25.8057 13.1294C25.8565 13.0936 25.9073 13.0607 25.9581 13.0308C26.1464 12.9113 26.3466 12.7947 26.5588 12.6871L26.5678 12.6811C26.6844 12.6213 26.8039 12.5646 26.9264 12.5108C26.9444 12.5018 26.9593 12.4958 26.9773 12.4869C27.049 12.457 27.1267 12.4271 27.2014 12.3942C27.2881 12.3613 27.3748 12.3285 27.4614 12.3016C27.5131 12.2805 27.566 12.2625 27.6198 12.2478C27.7095 12.2149 27.7992 12.188 27.8918 12.1641C27.9845 12.1402 28.0801 12.1103 28.1757 12.0894C28.367 12.0415 28.5643 11.9997 28.7645 11.9668L29.0664 11.922C29.168 11.907 29.2726 11.8981 29.3742 11.8861C29.4758 11.8742 29.5834 11.8682 29.688 11.8622C29.7926 11.8562 29.8972 11.8503 30.0048 11.8473C30.1124 11.8443 30.211 11.8413 30.3186 11.8413C30.697 11.8397 31.0752 11.8597 31.4514 11.9011C32.3712 11.9834 33.2664 12.2432 34.0874 12.6662C35.1388 13.205 36.0653 13.9584 36.8071 14.8778C37.6925 16.0135 38.3685 17.2978 38.8036 18.6705C39.2571 19.996 39.5814 21.3622 39.772 22.7501C39.9922 24.2594 40.1021 25.7827 40.1007 27.3079C40.0854 29.3853 39.8742 31.4567 39.4701 33.4945H39.4701Z" fill="white"/>
</g>
<defs>
<filter id="filter0_d" x="0" y="0" width="48" height="51.0379" filterUnits="userSpaceOnUse" color-interpolation-filters="sRGB">
<feFlood flood-opacity="0" result="BackgroundImageFix"/>
<feColorMatrix in="SourceAlpha" type="matrix" values="0 0 0 0 0 0 0 0 0 0 0 0 0 0 0 0 0 0 127 0"/>
<feOffset dy="4"/>
<feGaussianBlur stdDeviation="2"/>
<feColorMatrix type="matrix" values="0 0 0 0 0 0 0 0 0 0 0 0 0 0 0 0 0 0 0.25 0"/>
<feBlend mode="normal" in2="BackgroundImageFix" result="effect1_dropShadow"/>
<feBlend mode="normal" in="SourceGraphic" in2="effect1_dropShadow" result="shape"/>
</filter>
</defs>
</svg>
