<svg width="310" height="26" viewBox="0 0 310 26" fill="none" xmlns="http://www.w3.org/2000/svg">
<path d="M4.02117 21.5316L11.4944 1.21147L11.1744 0.500488H14.056L23.3798 22.2441C23.7237 22.9562 24.2079 23.5915 24.8033 24.112C25.4743 24.6348 26.3015 24.9168 27.152 24.9127V25.4108H17.5081V24.9127C17.9969 24.9533 18.4888 24.8972 18.9559 24.7476C19.423 24.5981 19.8561 24.358 20.2304 24.041C20.6937 23.5067 20.688 22.6702 20.213 21.5316L17.6152 15.447H7.68612L5.40839 21.8169C5.07678 22.8841 5.15401 23.6549 5.64008 24.1294C6.40335 24.696 7.34278 24.9735 8.29141 24.9128V25.4109H0V24.9128C0.512109 24.9012 1.01808 24.7987 1.49436 24.6101C1.90663 24.4419 2.28161 24.1939 2.59776 23.8803C2.91272 23.5633 3.18219 23.2042 3.39846 22.8131C3.62961 22.3978 3.8375 21.97 4.02117 21.5316ZM17.1519 14.3784L12.2054 2.88386L8.07854 14.3784H17.1519Z" fill="white"/>
<path d="M29.5371 25.4109V24.8766L31.4224 24.5218L32.5968 23.8094H32.633V3.52542C32.6628 3.17229 32.6054 2.81724 32.4658 2.49151C32.3262 2.16579 32.1086 1.87937 31.8323 1.65746C31.1476 1.21943 30.35 0.990477 29.5372 0.998612V0.500488H38.3267V0.998612C37.5241 0.985951 36.7364 1.21556 36.0663 1.65746C35.7994 1.88547 35.5908 2.17393 35.4578 2.49883C35.3248 2.82373 35.2713 3.17568 35.3018 3.52542V24.5218L43.3094 24.1294C43.9112 24.103 44.5111 24.0435 45.1064 23.9513C45.7339 23.8575 46.3413 23.6593 46.9034 23.3648C47.4963 23.0472 48.0078 22.5967 48.3977 22.0486C48.8781 21.3285 49.1826 20.5056 49.2868 19.6463H49.9631L49.1449 25.4109H29.5371Z" fill="white"/>
<path d="M52.1333 24.9128C52.7965 24.8896 53.354 24.8717 53.8058 24.8592C54.1663 24.8601 54.5252 24.8124 54.873 24.7173C55.1062 24.6544 55.3084 24.5087 55.442 24.3075C55.5778 24.0441 55.6394 23.7488 55.6202 23.4532V2.45676C55.639 2.16159 55.5775 1.86683 55.442 1.60388C55.308 1.40309 55.1059 1.25754 54.873 1.19409C54.5252 1.09901 54.1663 1.05128 53.8058 1.05219C53.354 1.04061 52.7965 1.02177 52.1333 0.998612V0.500488H71.812V0.749594L72.5954 6.26512H71.9191C71.8198 5.51969 71.591 4.79735 71.2429 4.13073C70.9695 3.62571 70.5937 3.18331 70.1395 2.83182C69.7238 2.51672 69.2536 2.28108 68.7523 2.13676C68.2521 1.99479 67.7396 1.89978 67.2217 1.85296L58.3251 1.38959V12.1021L66.8655 11.8168C67.171 11.8011 67.4685 11.714 67.7343 11.5627C68.0001 11.4113 68.2267 11.1998 68.3961 10.9451C68.7659 10.3006 68.962 9.57115 68.9652 8.82811H69.4633V16.3361H68.9652C68.9579 15.5822 68.7623 14.842 68.3961 14.1829C68.2272 13.9171 67.9968 13.696 67.7243 13.5382C67.4518 13.3804 67.1453 13.2906 66.8308 13.2764L58.3251 12.9912V24.5218L67.2217 24.0584C67.7508 24.0096 68.2745 23.9146 68.7871 23.7746C69.3106 23.6302 69.8046 23.395 70.2467 23.0796C70.7282 22.7252 71.1335 22.2776 71.4384 21.7633C71.8158 21.1113 72.0636 20.3924 72.1682 19.6463H72.8444L72.0263 25.4109H52.1333L52.1333 24.9128Z" fill="white"/>
<path d="M76.7964 6.04996C76.7632 5.0194 77.0695 4.00646 77.6681 3.16694C78.2465 2.38606 78.9953 1.74724 79.8575 1.29899C80.7634 0.825928 81.7345 0.490173 82.7391 0.302739C83.7119 0.108403 84.701 0.00706874 85.6931 0.000104108C86.425 -0.00349103 87.1544 0.0860404 87.8637 0.266544C88.4905 0.4243 89.1036 0.632529 89.6969 0.889193C90.1577 1.0886 90.6038 1.32038 91.0319 1.58279C91.3867 1.80869 91.6237 1.96894 91.7429 2.06354L92.1353 8.22056H91.601C91.4433 7.51442 91.2411 6.81895 90.9957 6.13829C90.6944 5.28947 90.2556 4.49597 89.6968 3.78957C89.006 2.90735 88.1141 2.2032 87.0957 1.73592C86.0772 1.26864 84.9618 1.05179 83.8425 1.10347C83.2644 1.10455 82.6895 1.18843 82.1352 1.35258C81.58 1.51039 81.0562 1.76319 80.5873 2.09976C80.1316 2.42393 79.7443 2.83481 79.4477 3.30887C79.1432 3.81262 78.989 4.39288 79.0031 4.98134C79.0403 6.11709 79.5041 7.19712 80.302 8.00621C81.6264 9.30859 83.1599 10.3795 84.8387 11.1745C85.2905 11.412 85.777 11.6547 86.2983 11.9028C86.8196 12.1519 87.3534 12.4131 87.8998 12.6862C88.4458 12.9599 88.9854 13.2505 89.5187 13.5579C90.0343 13.8542 90.5279 14.1871 90.9957 14.5542C91.624 15.0386 92.1761 15.6146 92.6334 16.2628C93.0602 16.879 93.284 17.613 93.2735 18.3625C93.2848 19.4671 93.0401 20.5593 92.5585 21.5534C92.0769 22.5475 91.3715 23.4166 90.4976 24.0923C89.6956 24.7314 88.7769 25.2085 87.7927 25.4969C86.6617 25.8287 85.4829 25.9673 84.3058 25.9067C83.5724 25.8836 82.8441 25.7763 82.1352 25.5867C81.4506 25.4061 80.7786 25.1802 80.1239 24.9105C79.4955 24.6499 78.9201 24.383 78.3979 24.1098C77.8766 23.8376 77.4258 23.5943 77.0454 23.38V17.1172H77.5797C77.6661 19.1329 78.504 21.0433 79.9285 22.472C81.4512 23.7628 83.4178 24.4081 85.4093 24.2705C86.0978 24.2706 86.7842 24.1929 87.4553 24.0388C88.0967 23.8988 88.71 23.6521 89.2697 23.309C89.804 22.9775 90.2544 22.527 90.5859 21.9927C90.9455 21.3913 91.1249 20.6992 91.1029 19.9988C91.1113 19.3241 90.9521 18.6579 90.6395 18.0599C90.319 17.4639 89.8977 16.9279 89.3942 16.4758C88.9255 16.0592 88.426 15.6787 87.8999 15.3376C87.3495 14.9789 86.779 14.6521 86.1912 14.3587C85.5989 14.0619 85.012 13.7771 84.4304 13.5044C83.8483 13.2322 83.3086 12.9773 82.8115 12.7398C81.7734 12.2257 80.774 11.6367 79.8213 10.9776C79.1386 10.512 78.5223 9.95569 77.9896 9.32396C77.2097 8.41243 76.7859 7.24955 76.7964 6.04998V6.04996Z" fill="white"/>
<path d="M96.7945 6.04996C96.7606 5.01931 97.067 4.00615 97.6662 3.16694C98.2441 2.38611 98.9924 1.74728 99.8542 1.29899C100.761 0.825923 101.732 0.490172 102.737 0.302739C103.71 0.108403 104.699 0.00706807 105.691 0.000104108C106.423 -0.00349103 107.152 0.0860404 107.862 0.266544C108.489 0.424311 109.102 0.632551 109.695 0.889224C110.155 1.08891 110.601 1.32068 111.029 1.58282C111.385 1.80872 111.622 1.96897 111.741 2.06357L112.132 8.22059H111.598C111.44 7.51462 111.238 6.81916 110.994 6.13826C110.692 5.28971 110.253 4.4963 109.695 3.78954C109.004 2.90765 108.112 2.20375 107.094 1.7365C106.075 1.26925 104.96 1.0522 103.841 1.10344C103.262 1.10451 102.687 1.1884 102.132 1.35255C101.577 1.51095 101.053 1.7637 100.584 2.09973C100.129 2.42395 99.742 2.83483 99.4458 3.30884C99.1413 3.81259 98.9871 4.39285 99.0013 4.98131C99.0378 6.11721 99.5017 7.19747 100.3 8.00618C101.624 9.3089 103.158 10.3799 104.837 11.1744C105.287 11.4119 105.774 11.6547 106.296 11.9028C106.818 12.1519 107.352 12.413 107.898 12.6862C108.442 12.9599 108.982 13.2505 109.517 13.5579C110.032 13.8548 110.526 14.1877 110.994 14.5542C111.621 15.039 112.173 15.6149 112.63 16.2628C113.057 16.879 113.281 17.613 113.27 18.3624C113.282 19.467 113.038 20.5593 112.557 21.5535C112.075 22.5477 111.37 23.4168 110.496 24.0923C109.694 24.7311 108.775 25.2081 107.791 25.4969C106.659 25.8287 105.48 25.9672 104.303 25.9067C103.569 25.8835 102.841 25.7761 102.132 25.5866C101.448 25.4059 100.776 25.18 100.122 24.9105C99.4922 24.6498 98.9169 24.3829 98.396 24.1098C97.8733 23.8376 97.4225 23.5943 97.0436 23.38V17.1172H97.5765C97.6635 19.1328 98.5013 21.0429 99.9252 22.472C101.448 23.7626 103.415 24.4079 105.406 24.2705C106.095 24.2706 106.781 24.1929 107.452 24.0388C108.094 23.8985 108.708 23.6518 109.268 23.309C109.801 22.9767 110.252 22.5264 110.584 21.9927C110.943 21.3908 111.121 20.699 111.1 19.9988C111.109 19.3242 110.95 18.658 110.638 18.0599C110.317 17.4639 109.896 16.9279 109.392 16.4758C108.923 16.0599 108.424 15.6795 107.898 15.3376C107.347 14.9796 106.777 14.6527 106.189 14.3587C105.596 14.0619 105.008 13.7771 104.427 13.5044C103.846 13.2322 103.307 12.9773 102.808 12.7398C101.771 12.2257 100.772 11.6367 99.8195 10.9776C99.136 10.5124 98.5192 9.95603 97.9863 9.32396C97.5842 8.84297 97.2709 8.29431 97.061 7.7036C96.8831 7.17048 96.7931 6.61198 96.7945 6.04996Z" fill="white"/>
<path d="M116.223 24.9128C117.036 24.9211 117.834 24.6922 118.518 24.2539C118.795 24.0322 119.013 23.7458 119.152 23.4201C119.292 23.0943 119.349 22.7391 119.319 22.386V3.52542C119.349 3.17225 119.292 2.8171 119.152 2.49132C119.013 2.16553 118.795 1.87915 118.518 1.65746C117.834 1.21922 117.036 0.990256 116.223 0.998612V0.500488H125.013V0.998612C124.211 0.985922 123.423 1.21554 122.754 1.65746C122.486 1.88515 122.277 2.17351 122.144 2.49847C122.011 2.82342 121.957 3.17554 121.988 3.52542V22.386C121.957 22.7358 122.011 23.088 122.144 23.4129C122.277 23.7379 122.486 24.0262 122.754 24.2539C123.423 24.6958 124.211 24.9255 125.013 24.9128V25.4109H116.223V24.9128Z" fill="white"/>
<path d="M131.634 21.5316L139.108 1.21147L138.788 0.500488H141.669L150.993 22.2441C151.337 22.9562 151.821 23.5915 152.417 24.112C153.088 24.6348 153.915 24.9168 154.765 24.9127V25.4108H145.121V24.9127C145.61 24.9533 146.102 24.8972 146.569 24.7476C147.036 24.5981 147.469 24.358 147.844 24.041C148.307 23.5067 148.301 22.6702 147.826 21.5316L145.229 15.447H135.299L133.022 21.8168C132.69 22.884 132.767 23.6549 133.253 24.1293C134.017 24.6959 134.956 24.9735 135.905 24.9127V25.4108H127.613V24.9127C128.125 24.9011 128.631 24.7986 129.108 24.6101C129.52 24.4418 129.895 24.1938 130.211 23.8803C130.526 23.5633 130.795 23.2041 131.012 22.8131C131.243 22.3978 131.451 21.97 131.634 21.5316V21.5316ZM144.765 14.3784L139.819 2.88386L135.692 14.3784H144.765Z" fill="white"/>
<path d="M179.07 0.0344529C180.81 0.00853343 182.536 0.341764 184.141 1.01331C185.601 1.63238 186.916 2.54751 188.003 3.70085C189.093 4.87619 189.929 6.26319 190.459 7.77553C191.04 9.42683 191.329 11.1669 191.312 12.9175C191.325 14.6403 191.055 16.3535 190.511 17.9885C190.015 19.5032 189.216 20.9013 188.163 22.098C187.11 23.2763 185.818 24.2167 184.373 24.8565C182.769 25.5547 181.034 25.9004 179.285 25.8701C177.555 25.8946 175.839 25.5552 174.248 24.8738C172.784 24.2403 171.469 23.3071 170.388 22.1342C169.301 20.9403 168.46 19.5432 167.915 18.0232C167.323 16.3867 167.028 14.6577 167.043 12.9175C167.028 11.1827 167.299 9.4573 167.844 7.8103C168.339 6.29997 169.138 4.90721 170.192 3.71817C171.24 2.55523 172.527 1.63252 173.965 1.01325C175.58 0.334881 177.319 0.00149016 179.07 0.0344529V0.0344529ZM169.925 14.5191C170.105 15.8647 170.496 17.1737 171.082 18.3983C171.634 19.5659 172.373 20.6356 173.27 21.5652C174.284 22.6122 175.501 23.4414 176.846 24.0022C178.19 24.5606 179.652 24.7746 181.099 24.6248C182.404 24.5345 183.651 24.0509 184.676 23.2376C185.713 22.3951 186.556 21.3393 187.149 20.1418C187.834 18.7682 188.279 17.2878 188.465 15.7644C188.679 14.1323 188.655 12.4779 188.394 10.8527C188.192 9.46311 187.746 8.12007 187.078 6.88507C186.439 5.69653 185.609 4.62084 184.622 3.70085C183.621 2.73157 182.427 1.98538 181.116 1.51143C179.811 1.04824 178.413 0.908133 177.042 1.10309C175.945 1.27584 174.9 1.68872 173.982 2.3122C173.067 2.94252 172.292 3.75431 171.704 4.6971C170.864 6.06577 170.291 7.58099 170.014 9.16282C169.692 10.9313 169.662 12.7407 169.925 14.5191H169.925Z" fill="white"/>
<path d="M193.981 24.9128C194.644 24.8896 195.202 24.8717 195.653 24.8592C196.014 24.8601 196.373 24.8124 196.721 24.7173C196.954 24.6544 197.156 24.5087 197.29 24.3075C197.425 24.0441 197.487 23.7488 197.468 23.4532V2.45676C197.487 2.16159 197.425 1.86683 197.29 1.60388C197.156 1.40309 196.954 1.25754 196.721 1.19409C196.373 1.09901 196.014 1.05128 195.653 1.05219C195.202 1.04061 194.644 1.02177 193.981 0.998612V0.500488H213.66V0.749594L214.443 6.26512H213.767C213.667 5.51969 213.439 4.79735 213.091 4.13073C212.817 3.62571 212.441 3.1833 211.987 2.83182C211.572 2.51672 211.101 2.28108 210.6 2.13676C210.1 1.99479 209.587 1.89978 209.069 1.85296L200.173 1.38959V12.1021L208.713 11.8168C209.019 11.8011 209.316 11.714 209.582 11.5627C209.848 11.4113 210.074 11.1998 210.244 10.9451C210.614 10.3006 210.81 9.57115 210.813 8.82811H211.311V16.3361H210.813C210.806 15.5822 210.61 14.842 210.244 14.1829C210.075 13.9171 209.844 13.696 209.572 13.5382C209.299 13.3804 208.993 13.2906 208.678 13.2764L200.173 12.9912V24.5218L209.069 24.0584C209.598 24.0096 210.122 23.9146 210.635 23.7746C211.158 23.6302 211.652 23.395 212.094 23.0796C212.576 22.7252 212.981 22.2776 213.286 21.7633C213.663 21.1112 213.911 20.3924 214.016 19.6463H214.692L213.874 25.4109H193.981L193.981 24.9128Z" fill="white"/>
<path d="M217.969 0.500964H228.751C229.818 0.490701 230.881 0.646535 231.9 0.962879C232.797 1.23826 233.639 1.66588 234.391 2.22701C235.063 2.72834 235.617 3.37216 236.011 4.11235C236.386 4.81916 236.582 5.60734 236.58 6.40747C236.638 8.10438 236.11 9.76945 235.086 11.1237C233.849 12.5245 232.138 13.4179 230.281 13.6317C230.569 13.6806 230.839 13.8033 231.065 13.9879C231.353 14.2343 231.61 14.5154 231.829 14.8248C232.166 15.2926 232.475 15.7795 232.755 16.283C233.098 16.8883 233.507 17.6417 233.983 18.5434C234.433 19.3977 234.877 20.2043 235.316 20.963C235.722 21.6728 236.18 22.351 236.688 22.9917C237.106 23.5326 237.604 24.0067 238.164 24.3978C238.639 24.73 239.204 24.9099 239.783 24.9133H240.709L240.638 25.4114H236.864C236.409 25.4022 235.968 25.253 235.601 24.9842C235.14 24.6585 234.722 24.2761 234.356 23.8461C233.909 23.3295 233.499 22.7823 233.128 22.2083C232.724 21.5915 232.345 20.951 231.99 20.2868C231.278 19.0053 230.708 17.9555 230.281 17.1374C229.939 16.4639 229.559 15.8103 229.143 15.1796C228.893 14.7742 228.551 14.433 228.146 14.1834C227.759 13.9932 227.331 13.9017 226.9 13.917H224.124V22.3865C224.094 22.7364 224.147 23.0885 224.281 23.4134C224.414 23.7384 224.623 24.0267 224.89 24.2544C225.56 24.6963 226.347 24.926 227.149 24.9133V25.4114H218.36V24.9133C219.173 24.9214 219.97 24.6925 220.655 24.2544C220.931 24.0327 221.149 23.7464 221.289 23.4206C221.428 23.0948 221.486 22.7396 221.456 22.3865V2.45724C221.474 2.16207 221.413 1.86731 221.277 1.60436C221.143 1.40357 220.941 1.25802 220.708 1.19456C220.361 1.09949 220.002 1.05176 219.641 1.05266C219.189 1.04108 218.632 1.02225 217.969 0.999088L217.969 0.500964ZM224.125 2.88441V12.8497H229.747C230.319 12.8496 230.881 12.7089 231.385 12.44C231.903 12.1706 232.367 11.8089 232.755 11.3727C233.153 10.9225 233.466 10.4039 233.68 9.84218C233.901 9.28083 234.015 8.68321 234.017 8.07994C234.036 7.09085 233.867 6.10721 233.519 5.18099C233.22 4.39079 232.78 3.6613 232.22 3.02777C231.712 2.45266 231.088 1.99172 230.389 1.67531C229.716 1.37048 228.991 1.20121 228.253 1.17719C227.517 1.15403 226.882 1.14775 226.349 1.15837C225.916 1.15665 225.485 1.21663 225.069 1.33648C224.774 1.42289 224.521 1.61264 224.356 1.8708C224.187 2.18069 224.106 2.53161 224.125 2.88441Z" fill="white"/>
<path d="M241.31 0.500488H262.199L263.017 6.69225H262.342C262.242 5.72647 261.938 4.79283 261.452 3.95258C261.095 3.36733 260.616 2.86576 260.048 2.48198C259.48 2.09819 258.837 1.84118 258.16 1.72841C257.566 1.62497 256.966 1.55969 256.363 1.53293H253.124V22.386C253.114 22.7756 253.219 23.1595 253.427 23.4894C253.636 23.8051 253.917 24.067 254.246 24.2539C254.618 24.4674 255.02 24.6237 255.438 24.7173C255.906 24.8261 256.382 24.8915 256.862 24.9128V25.4109H246.649V24.9128C247.128 24.8914 247.605 24.826 248.072 24.7173C248.495 24.6211 248.902 24.465 249.281 24.2539C249.621 24.0678 249.913 23.8063 250.136 23.4894C250.354 23.1635 250.466 22.778 250.456 22.386V1.53293H247.147C246.544 1.55953 245.944 1.62482 245.35 1.72841C244.673 1.8409 244.029 2.09779 243.461 2.48159C242.893 2.86539 242.414 3.3671 242.057 3.95258C241.57 4.79267 241.267 5.72644 241.168 6.69225H240.492L241.31 0.500488Z" fill="white"/>
<path d="M265.583 24.9128C266.246 24.8896 266.803 24.8717 267.255 24.8592C267.616 24.8601 267.975 24.8124 268.322 24.7173C268.555 24.6544 268.758 24.5087 268.891 24.3075C269.027 24.0441 269.089 23.7488 269.069 23.4532V2.45676C269.088 2.16159 269.027 1.86683 268.891 1.60388C268.757 1.40309 268.555 1.25754 268.322 1.19409C267.975 1.09901 267.616 1.05128 267.255 1.05219C266.803 1.04061 266.246 1.02177 265.583 0.998612V0.500488H285.261V0.749594L286.045 6.26512H285.368C285.269 5.51969 285.04 4.79735 284.692 4.13073C284.419 3.62571 284.043 3.1833 283.589 2.83182C283.173 2.51672 282.703 2.28108 282.202 2.13676C281.701 1.99479 281.189 1.89978 280.671 1.85296L271.774 1.38959V12.1021L280.315 11.8168C280.62 11.8011 280.918 11.714 281.184 11.5627C281.449 11.4113 281.676 11.1998 281.845 10.9451C282.215 10.3006 282.411 9.57115 282.414 8.82811H282.913V16.3361H282.414C282.407 15.5822 282.212 14.842 281.845 14.1829C281.677 13.9171 281.446 13.696 281.174 13.5382C280.901 13.3804 280.595 13.2906 280.28 13.2764L271.774 12.9912V24.5218L280.671 24.0584C281.2 24.0096 281.724 23.9146 282.236 23.7746C282.76 23.6302 283.254 23.395 283.696 23.0796C284.177 22.7252 284.583 22.2776 284.888 21.7633C285.265 21.1112 285.513 20.3924 285.617 19.6463H286.294L285.475 25.4109H265.583L265.583 24.9128Z" fill="white"/>
<path d="M289.574 25.4109V24.8766L291.459 24.5218L292.633 23.8094H292.67V3.52542C292.699 3.17229 292.642 2.81724 292.502 2.49151C292.363 2.16578 292.145 1.87936 291.869 1.65746C291.184 1.21943 290.387 0.990477 289.574 0.998612V0.500488H298.363V0.998612C297.561 0.985949 296.773 1.21556 296.103 1.65746C295.836 1.88547 295.627 2.17392 295.494 2.49883C295.361 2.82373 295.308 3.17568 295.338 3.52542V24.5218L303.346 24.1294C303.948 24.103 304.548 24.0435 305.143 23.9513C305.771 23.8575 306.378 23.6593 306.94 23.3648C307.533 23.0472 308.044 22.5967 308.434 22.0486C308.915 21.3285 309.219 20.5056 309.323 19.6463H310L309.182 25.4109H289.574Z" fill="white"/>
</svg>
